<svg xmlns="http://www.w3.org/2000/svg" viewBox="0 0 1440 320"><path fill="#2ca396" fill-opacity="1" d="M0,32L9.6,26.7C19.2,21,38,11,58,21.3C76.8,32,96,64,115,101.3C134.4,139,154,181,173,186.7C192,192,211,160,230,154.7C249.6,149,269,171,288,160C307.2,149,326,107,346,106.7C364.8,107,384,149,403,144C422.4,139,442,85,461,64C480,43,499,53,518,101.3C537.6,149,557,235,576,245.3C595.2,256,614,192,634,181.3C652.8,171,672,213,691,213.3C710.4,213,730,171,749,176C768,181,787,235,806,234.7C825.6,235,845,181,864,133.3C883.2,85,902,43,922,48C940.8,53,960,107,979,149.3C998.4,192,1018,224,1037,245.3C1056,267,1075,277,1094,245.3C1113.6,213,1133,139,1152,117.3C1171.2,96,1190,128,1210,149.3C1228.8,171,1248,181,1267,154.7C1286.4,128,1306,64,1325,42.7C1344,21,1363,43,1382,85.3C1401.6,128,1421,192,1430,224L1440,256L1440,320L1430.4,320C1420.8,320,1402,320,1382,320C1363.2,320,1344,320,1325,320C1305.6,320,1286,320,1267,320C1248,320,1229,320,1210,320C1190.4,320,1171,320,1152,320C1132.8,320,1114,320,1094,320C1075.2,320,1056,320,1037,320C1017.6,320,998,320,979,320C960,320,941,320,922,320C902.4,320,883,320,864,320C844.8,320,826,320,806,320C787.2,320,768,320,749,320C729.6,320,710,320,691,320C672,320,653,320,634,320C614.4,320,595,320,576,320C556.8,320,538,320,518,320C499.2,320,480,320,461,320C441.6,320,422,320,403,320C384,320,365,320,346,320C326.4,320,307,320,288,320C268.8,320,250,320,230,320C211.2,320,192,320,173,320C153.6,320,134,320,115,320C96,320,77,320,58,320C38.4,320,19,320,10,320L0,320Z"></path></svg>